<svg width="16" height="16" viewBox="0 0 16 16" fill="none" xmlns="http://www.w3.org/2000/svg"><path d="M7.88214 12.825L4.18214 15.65C3.99881 15.8 3.79881 15.871 3.58214 15.863C3.36548 15.855 3.17381 15.7923 3.00714 15.675C2.84048 15.5577 2.71148 15.3993 2.62014 15.2C2.52881 15.0007 2.52448 14.784 2.60714 14.55L4.03214 9.925L0.407143 7.35001C0.207143 7.21667 0.0821428 7.04167 0.0321428 6.82501C-0.0178572 6.60834 -0.00952375 6.40834 0.0571429 6.22501C0.12381 6.04167 0.240476 5.87901 0.407143 5.73701C0.57381 5.59501 0.773809 5.52434 1.00714 5.52501H5.48214L6.93214 0.725005C7.01548 0.491672 7.14481 0.312339 7.32014 0.187005C7.49548 0.061672 7.68281 -0.000661376 7.88214 5.291e-06C8.08148 0.000671958 8.26914 0.0633388 8.44514 0.188005C8.62114 0.312672 8.75014 0.491672 8.83214 0.725005L10.2821 5.52501H14.7571C14.9905 5.52501 15.1905 5.59601 15.3571 5.73801C15.5238 5.88001 15.6405 6.04234 15.7071 6.22501C15.7738 6.40767 15.7821 6.60767 15.7321 6.82501C15.6821 7.04234 15.5571 7.21734 15.3571 7.35001L11.7321 9.925L13.1571 14.55C13.2405 14.7833 13.2365 15 13.1451 15.2C13.0538 15.4 12.9245 15.5583 12.7571 15.675C12.5898 15.7917 12.3981 15.8543 12.1821 15.863C11.9661 15.8717 11.7661 15.8007 11.5821 15.65L7.88214 12.825Z" fill="white"/></svg>
